# xmcd CD database file
#
# Track frame offsets:
#	150
#	20815
#	48547
#	75211
#	91210
#	117911
#	138129
#	157759
#	164877
#	189414
#
# Disc length: 2757 seconds
#
# Revision: 0
# Processed by: cddbd v1.5.2PL0 Copyright (c) Steve Scherf et al.
# Submitted via: CDex 1.70beta2
#
DISCID=750ac30a
DTITLE=THE JAZZ LADY - THE JAZZ LADY
DYEAR=2012
DGENRE=Jazz
TTITLE0=The Gift (Recado Bossa Nova)
TTITLE1=Fever
TTITLE2=Black Orpheus
TTITLE3=Don’t Get Around Much Anymore
TTITLE4=Misty
TTITLE5=Fly Me To The Moon
TTITLE6=Tennessee Waltz~You’d Be So Nice To Come Home To
TTITLE7=Green Sleeves
TTITLE8=Over The Rainbow
TTITLE9=Ladies In Jazz
EXTD=YEAR: 2012
EXTT0=
EXTT1=
EXTT2=
EXTT3=
EXTT4=
EXTT5=
EXTT6=
EXTT7=
EXTT8=
EXTT9=
PLAYORDER=
